<svg xmlns="http://www.w3.org/2000/svg" viewBox="0 0 512 512" width="100%" height="100%">
  <defs>
    <linearGradient id="bgGrad" x1="0%" y1="0%" x2="100%" y2="100%">
      <stop offset="0%" stop-color="#121214"/>
      <stop offset="100%" stop-color="#0a0a0a"/>
    </linearGradient>
    <linearGradient id="emeraldGrad" x1="0%" y1="0%" x2="100%" y2="100%">
      <stop offset="0%" stop-color="#34d399"/>
      <stop offset="50%" stop-color="#10b981"/>
      <stop offset="100%" stop-color="#059669"/>
    </linearGradient>
    <filter id="glow" x="-20%" y="-20%" width="140%" height="140%">
      <feGaussianBlur stdDeviation="12" result="blur" />
      <feComposite in="SourceGraphic" in2="blur" operator="over" />
    </filter>
  </defs>

  <rect width="512" height="512" rx="128" fill="url(#bgGrad)"/>
  <rect width="504" height="504" x="4" y="4" rx="124" fill="none" stroke="url(#emeraldGrad)" stroke-width="6" stroke-opacity="0.3"/>
  <circle cx="256" cy="256" r="160" fill="#10b981" opacity="0.15" filter="url(#glow)"/>

  <g transform="translate(106, 106) scale(0.588)">
    <path d="M 70,120 C 70,86.86 96.86,60 130,60 L 380,60 C 413.14,60 440,86.86 440,120 L 440,380 C 440,413.14 413.14,440 380,440 L 130,440 C 96.86,440 70,413.14 70,380 Z" fill="none" stroke="url(#emeraldGrad)" stroke-width="32" stroke-linejoin="round"/>
    <path d="M 130,330 L 220,240 L 290,300 L 390,170" fill="none" stroke="url(#emeraldGrad)" stroke-width="36" stroke-linecap="round" stroke-linejoin="round" filter="url(#glow)"/>
    <path d="M 320,170 L 390,170 L 390,240" fill="none" stroke="url(#emeraldGrad)" stroke-width="36" stroke-linecap="round" stroke-linejoin="round"/>
    <path d="M 390,100 L 398,118 L 416,126 L 398,134 L 390,152 L 382,134 L 364,126 L 382,118 Z" fill="#34d399"/>
  </g>
</svg>
